<svg id="canvas" height="auto" xmlns="http://www.w3.org/2000/svg" version="1.1" xmlns:xlink="http://www.w3.org/1999/xlink" xmlns:svgjs="http://svgjs.dev/svgjs" viewBox="0 0 500 512" width="auto" style="width: auto; height: auto;"><rect width="500" height="512" fill="#000000"/><g transform="matrix(0.9926119953878545,-0.1213318862135667,0.1213318862135667,0.9926119953878545,-168.90643379586226,-139.52960988905613)"><rect width="357.82118439242805" height="90.19861787317714" fill="#769ede" x="0" y="-100" rx="15" ry="15"/><rect width="357.82118439242805" height="152.91171914076068" fill="#76b3de" x="377.82118439242805" y="0" rx="15" ry="15"/><rect width="357.82118439242805" height="130.2946878266136" fill="#76c7de" x="0" y="10.198617873177142" rx="15" ry="15"/><rect width="357.82118439242805" height="117.85911428704458" fill="#7689de" x="377.82118439242805" y="172.91171914076068" rx="15" ry="15"/><rect width="357.82118439242805" height="171.96453153054455" fill="#76c7de" x="0" y="160.49330569979074" rx="15" ry="15"/><rect width="357.82118439242805" height="123.65262793811252" fill="#7689de" x="377.82118439242805" y="310.77083342780526" rx="15" ry="15"/><rect width="357.82118439242805" height="93.00818759803778" fill="#8d76de" x="0" y="352.45783723033526" rx="15" ry="15"/><rect width="357.82118439242805" height="177.44250017858718" fill="#7876de" x="377.82118439242805" y="454.4234613659178" rx="15" ry="15"/><rect width="357.82118439242805" height="82.95483504989207" fill="#769ede" x="0" y="465.46602482837307" rx="15" ry="15"/><rect width="357.82118439242805" height="132.1567295475449" fill="#7876de" x="377.82118439242805" y="651.8659615445049" rx="15" ry="15"/><rect width="357.82118439242805" height="86.16659544184294" fill="#7876de" x="0" y="568.4208598782651" rx="15" ry="15"/><rect width="357.82118439242805" height="78.18675593600278" fill="#7689de" x="377.82118439242805" y="804.0226910920499" rx="15" ry="15"/><rect width="357.82118439242805" height="162.03474914177986" fill="#7689de" x="0" y="674.587455320108" rx="15" ry="15"/><rect width="357.82118439242805" height="84.65883247217498" fill="#76c7de" x="377.82118439242805" y="902.2094470280526" rx="15" ry="15"/></g></svg>